<?xml version="1.0" encoding="utf-8"?>
<!-- Generator: Adobe Illustrator 21.1.0, SVG Export Plug-In . SVG Version: 6.00 Build 0)  -->
<svg version="1.1" id="图层_1" xmlns="http://www.w3.org/2000/svg" xmlns:xlink="http://www.w3.org/1999/xlink" x="0px" y="0px"
	 viewBox="0 0 196 196" style="enable-background:new 0 0 196 196;" xml:space="preserve">
<style type="text/css">
	.st0{fill:#5CBAA7;}
</style>
<g>
	<path class="st0" d="M98.1,8.1c12.4,0,24,2.3,35,7c10.9,4.7,20.5,11.1,28.6,19.3c8.2,8.2,14.6,17.7,19.3,28.6c4.7,10.9,7,22.6,7,35
		c0,12.5-2.3,24.2-7,35.1c-4.7,10.9-11.1,20.4-19.3,28.5c-8.2,8.2-17.7,14.6-28.6,19.3c-10.9,4.7-22.6,7-35,7
		c-12.5,0-24.2-2.3-35.2-7c-10.9-4.7-20.5-11.1-28.6-19.3c-8.2-8.2-14.6-17.7-19.3-28.5c-4.7-10.9-7-22.6-7-35.1c0-12.4,2.3-24,7-35
		c4.7-10.9,11.1-20.5,19.3-28.6c8.2-8.2,17.7-14.6,28.6-19.3C73.9,10.4,85.6,8.1,98.1,8.1L98.1,8.1z M149.5,110.4
		c3.5,0,6.5-1.3,9-3.8c2.4-2.5,3.7-5.5,3.7-9.1c0-3.5-1.2-6.5-3.7-9c-2.4-2.4-5.4-3.7-9-3.7h-38.3V46.6c0-3.5-1.3-6.6-3.8-9.1
		c-2.5-2.5-5.5-3.8-9.1-3.8c-3.5,0-6.5,1.3-9,3.8c-2.4,2.5-3.7,5.5-3.7,9.1V85H47.3c-3.5,0-6.5,1.2-9,3.7c-2.4,2.4-3.7,5.4-3.7,9
		c0,3.5,1.2,6.6,3.7,9.1c2.4,2.5,5.4,3.8,9,3.8h38.3v38.1c0,3.5,1.2,6.6,3.7,9.1c2.4,2.5,5.4,3.8,9,3.8c3.5,0,6.6-1.3,9.1-3.8
		c2.5-2.5,3.8-5.5,3.8-9.1v-38.1H149.5z M149.5,110.4"/>
</g>
</svg>
