<?xml version="1.0" encoding="utf-8"?>
<!-- Generator: Adobe Illustrator 21.1.0, SVG Export Plug-In . SVG Version: 6.00 Build 0)  -->
<svg version="1.1" id="图层_1" xmlns="http://www.w3.org/2000/svg" xmlns:xlink="http://www.w3.org/1999/xlink" x="0px" y="0px"
	 viewBox="0 0 196 196" style="enable-background:new 0 0 196 196;" xml:space="preserve">
<path d="M98,23c-41.4,0-75,33.6-75,75c0,41.4,33.6,75,75,75c41.4,0,75-33.6,75-75C173,56.6,139.4,23,98,23L98,23z M127.8,116.8
	c3.1,1.7,4.7,5.1,4.1,8.5c-0.6,3.4-3.3,6.1-6.7,6.7c-3.4,0.6-6.8-1.1-8.5-4.1L98,109.1l-18.8,18.7c-1.7,3.1-5.1,4.7-8.5,4.1
	c-3.4-0.6-6.1-3.3-6.7-6.7c-0.6-3.4,1.1-6.8,4.1-8.5L86.9,98L68.2,79.2c-3.1-1.7-4.7-5.1-4.1-8.5c0.6-3.4,3.3-6.1,6.7-6.7
	c3.4-0.6,6.8,1.1,8.5,4.1L98,86.9l18.7-18.7c1.7-3.1,5.1-4.7,8.5-4.1c3.4,0.6,6.1,3.3,6.7,6.7c0.6,3.4-1.1,6.8-4.1,8.5L109.1,98
	L127.8,116.8z M127.8,116.8"/>
</svg>
