<?xml version="1.0" encoding="utf-8"?>
<svg version="1.1" xmlns="http://www.w3.org/2000/svg" xmlns:xlink="http://www.w3.org/1999/xlink" x="0px" y="0px"
	 viewBox="0 0 196 196" style="enable-background:new 0 0 196 196;" xml:space="preserve">
<style type="text/css">
	.st0{fill:#D17674;}
</style>
<path class="st0" d="M96.8,81.2L29.6,12.8c-4.8-4.8-12-4.8-18,0c-4.8,4.8-4.8,12,0,18L80,98l-68.4,68.4c-4.8,4.8-4.8,12,0,18
	c4.8,4.8,12,4.8,18,0L98,116l68.4,68.4c4.8,4.8,12,4.8,18,0c4.8-4.8,4.8-12,0-18L114.8,98l68.4-68.4c4.8-4.8,4.8-12,0-18
	c-4.8-4.8-12-4.8-18,0L96.8,81.2z M96.8,81.2"/>
</svg>
