<?xml version="1.0" encoding="utf-8"?>
<!-- Generator: Adobe Illustrator 21.1.0, SVG Export Plug-In . SVG Version: 6.00 Build 0)  -->
<svg version="1.1" id="图层_1" xmlns="http://www.w3.org/2000/svg" xmlns:xlink="http://www.w3.org/1999/xlink" x="0px" y="0px"
	 viewBox="0 0 196 196" style="enable-background:new 0 0 196 196;" xml:space="preserve">
<path d="M100.1,119.7h-4.9c-2.8,0-5.1,1.9-5.1,4.7c0,2.8,2.3,4.7,5.1,4.7h4.9c2.8,0,5.1-1.9,5.1-4.7
	C105.2,121.6,102.9,119.7,100.1,119.7z"/>
<path d="M73.7,103.9h-4.9c-2.8,0-5.1,1.6-5.1,4.4c0,2.8,2.3,4.7,5.1,4.7h4.9c2.8,0,5.1-1.9,5.1-4.7
	C78.8,105.5,76.5,103.9,73.7,103.9z"/>
<path d="M73.7,119.7h-4.9c-2.8,0-5.1,1.9-5.1,4.7c0,2.8,2.3,4.7,5.1,4.7h4.9c2.8,0,5.1-1.9,5.1-4.7
	C78.8,121.6,76.5,119.7,73.7,119.7z"/>
<path d="M173,83.5c0-0.5,0-0.9-0.1-1.3V68c0-13.4-10.6-24.1-23.7-24.1h-19.4V39c0-3.6-2-6.4-5.6-6.4c-3.6,0-5.6,2.9-5.6,6.4v4.9
	H76.5V39c0-3.6-2-6.4-5.6-6.4c-3.6,0-5.6,2.9-5.6,6.4v4.9H46.7C33.6,43.9,23,54.6,23,68.5v72.1c0,11.5,9.4,21.6,21.5,22.8l104.7,0.1
	c13.1,0,23.7-10.6,23.7-23.4V84.8C173,84.4,173,84,173,83.5z M46.7,53.6L46.7,53.6l18.6,0V61c0,3.6,2,6.4,5.6,6.4
	c3.6,0,5.6-2.9,5.6-6.4v-7.4h42.1V61c0,3.6,2,6.4,5.6,6.4c3.6,0,5.6-2.9,5.6-6.4v-7.4h19.4c7.7,0,14.1,6.3,14.1,14.4v10H33.1
	c-0.1,0-0.3,0-0.4,0v-9.5C32.7,59.9,39,53.6,46.7,53.6z M149.1,153.8H46.7c-7.8,0-14.1-6.3-14.1-13.2V89.1c0.1,0,0.3,0,0.4,0h130.1
	v51C163.2,147.5,156.9,153.8,149.1,153.8z"/>
<path d="M126.9,103.9H122c-2.8,0-5.1,1.6-5.1,4.4c0,2.8,2.3,4.7,5.1,4.7h4.9c2.8,0,5.1-1.9,5.1-4.7
	C132,105.5,129.7,103.9,126.9,103.9z"/>
<path d="M100.1,103.9h-4.9c-2.8,0-5.1,1.6-5.1,4.4c0,2.8,2.3,4.7,5.1,4.7h4.9c2.8,0,5.1-1.9,5.1-4.7
	C105.2,105.5,102.9,103.9,100.1,103.9z"/>
<path d="M126.9,119.7H122c-2.8,0-5.1,1.9-5.1,4.7c0,2.8,2.3,4.7,5.1,4.7h4.9c2.8,0,5.1-1.9,5.1-4.7
	C132,121.6,129.7,119.7,126.9,119.7z"/>
</svg>
