<?xml version="1.0" encoding="utf-8"?>
<svg version="1.1" xmlns="http://www.w3.org/2000/svg" xmlns:xlink="http://www.w3.org/1999/xlink" x="0px" y="0px"
	 viewBox="0 0 200 200">
<path d="M162.5,181.3h-125c-10.3,0-18.8-8.4-18.8-18.7v-125c0-10.3,8.4-18.8,18.8-18.8h125c10.3,0,18.7,8.4,18.7,18.8v125
	C181.3,172.8,172.8,181.3,162.5,181.3z M37.5,31.3c-3.4,0-6.3,2.8-6.3,6.3v125c0,3.5,2.8,6.2,6.3,6.2h125c3.5,0,6.2-2.8,6.2-6.2
	v-125c0-3.4-2.8-6.3-6.2-6.3H37.5z"/>
	<path d="M133.5,107h-67c-3.9,0-7-3.1-7-7s3.1-7,7-7h67c3.9,0,7,3.1,7,7S137.4,107,133.5,107z"/>
</svg>
